<svg width="40" height="29" viewBox="0 0 40 29" fill="none" xmlns="http://www.w3.org/2000/svg">
<path d="M39.2091 28.2547V28.3283H39.2835C39.2975 28.3285 39.3113 28.3253 39.3234 28.3189C39.3283 28.3157 39.3322 28.3115 39.3348 28.3066C39.3374 28.3017 39.3387 28.2962 39.3384 28.2907C39.3386 28.2854 39.3374 28.28 39.3348 28.2752C39.3322 28.2704 39.3283 28.2663 39.3234 28.2633C39.3114 28.2566 39.2975 28.2534 39.2835 28.2539H39.2091V28.2547ZM39.2843 28.2026C39.3162 28.2008 39.3478 28.2092 39.3737 28.2265C39.3841 28.2343 39.3923 28.2443 39.3978 28.2556C39.4032 28.267 39.4057 28.2793 39.405 28.2917C39.4055 28.3023 39.4035 28.3129 39.3992 28.3228C39.3948 28.3327 39.3883 28.3416 39.3799 28.3489C39.3599 28.3649 39.3349 28.3746 39.3085 28.3763L39.4082 28.4813H39.3314L39.2397 28.3771H39.2099V28.4813H39.1457V28.2028H39.2853L39.2843 28.2026ZM39.2644 28.5774C39.2981 28.5777 39.3314 28.5714 39.3623 28.559C39.3921 28.5471 39.4192 28.5302 39.4421 28.5091C39.4651 28.488 39.4835 28.463 39.4962 28.4354C39.5224 28.3771 39.5224 28.3115 39.4962 28.2532C39.4833 28.2258 39.4649 28.2008 39.4421 28.1796C39.4192 28.1584 39.3921 28.1415 39.3623 28.1297C39.3313 28.1179 39.298 28.112 39.2644 28.1124C39.2302 28.1121 39.1964 28.118 39.1647 28.1297C39.1342 28.1413 39.1065 28.1582 39.0831 28.1796C39.0478 28.213 39.0239 28.2552 39.0144 28.301C39.005 28.3468 39.0103 28.3942 39.0298 28.4373C39.042 28.4649 39.0601 28.49 39.0831 28.5109C39.1065 28.5322 39.1342 28.5492 39.1647 28.5608C39.1962 28.5732 39.2301 28.5795 39.2644 28.5792M39.2644 28.0454C39.3521 28.0453 39.4362 28.077 39.4988 28.1337C39.5289 28.1609 39.5529 28.1934 39.5694 28.2293C39.5864 28.2661 39.5952 28.3057 39.5952 28.3457C39.5952 28.3857 39.5864 28.4253 39.5694 28.4621C39.5525 28.4978 39.5286 28.5302 39.4988 28.5577C39.4682 28.5847 39.4326 28.6066 39.3936 28.6221C39.3528 28.6381 39.3088 28.6463 39.2644 28.646C39.2195 28.6463 39.1749 28.6382 39.1335 28.6221C39.0942 28.6069 39.0582 28.5851 39.0276 28.5577C38.9978 28.5292 38.9742 28.4957 38.958 28.459C38.9409 28.4222 38.9322 28.3826 38.9322 28.3426C38.9322 28.3025 38.9409 28.2629 38.958 28.2261C38.9745 28.1903 38.9985 28.1578 39.0286 28.1306C39.0588 28.1027 39.0949 28.0808 39.1345 28.0662C39.1759 28.0501 39.2205 28.0419 39.2654 28.0422M8.72077 26.9698C8.72077 26.4387 9.09777 26.0024 9.71395 26.0024C10.3028 26.0024 10.7002 26.4199 10.7002 26.9698C10.7002 27.5196 10.3028 27.9371 9.71395 27.9371C9.09777 27.9371 8.72077 27.5008 8.72077 26.9698M11.3714 26.9698V25.4585H10.6595V25.8266C10.4337 25.5546 10.0912 25.3839 9.62539 25.3839C8.7078 25.3839 7.9877 26.0481 7.9877 26.9705C7.9877 27.8929 8.7074 28.5571 9.62539 28.5571C10.091 28.5571 10.4337 28.3863 10.6595 28.1144V28.4813H11.3706V26.9698H11.3714ZM35.4265 26.9698C35.4265 26.4387 35.8035 26.0024 36.4199 26.0024C37.0093 26.0024 37.4061 26.4199 37.4061 26.9698C37.4061 27.5196 37.0093 27.9371 36.4199 27.9371C35.8037 27.9371 35.4265 27.5008 35.4265 26.9698ZM38.0779 26.9698V24.2454H37.3654V25.8266C37.1396 25.5546 36.7971 25.3839 36.3313 25.3839C35.4137 25.3839 34.6936 26.0481 34.6936 26.9705C34.6936 27.8929 35.4133 28.5571 36.3313 28.5571C36.7971 28.5571 37.1396 28.3863 37.3654 28.1144V28.4813H38.0779V26.9698ZM20.2073 25.9713C20.6661 25.9713 20.9608 26.2368 21.036 26.7041H19.3372C19.4132 26.2679 19.7003 25.9713 20.2075 25.9713M20.2217 25.3823C19.2622 25.3823 18.591 26.0265 18.591 26.9689C18.591 27.9296 19.2892 28.5555 20.2694 28.5555C20.7625 28.5555 21.2141 28.4419 21.6114 28.1321L21.2626 27.6452C20.9881 27.8477 20.6386 27.9612 20.3101 27.9612C19.8513 27.9612 19.4336 27.7652 19.3308 27.2212H21.7618C21.7688 27.1395 21.776 27.057 21.776 26.9687C21.7688 26.0267 21.1377 25.3821 20.2213 25.3821M28.8167 26.9687C28.8167 26.4376 29.1937 26.0013 29.8099 26.0013C30.3987 26.0013 30.7961 26.4188 30.7961 26.9687C30.7961 27.5185 30.3987 27.936 29.8099 27.936C29.1937 27.936 28.8165 27.4997 28.8165 26.9687M31.4671 26.9687V25.4585H30.7556V25.8266C30.529 25.5546 30.1873 25.3839 29.7215 25.3839C28.8039 25.3839 28.0838 26.0481 28.0838 26.9705C28.0838 27.8929 28.8035 28.5571 29.7215 28.5571C30.1873 28.5571 30.529 28.3863 30.7556 28.1144V28.4813H31.4673V26.9698L31.4671 26.9687ZM24.7963 26.9687C24.7963 27.8852 25.4876 28.5553 26.5429 28.5553C27.036 28.5553 27.3645 28.454 27.7198 28.195L27.3779 27.6639C27.1106 27.8412 26.8299 27.936 26.5201 27.936C25.9518 27.9296 25.5339 27.5504 25.5339 26.9687C25.5339 26.387 25.9518 26.0079 26.5201 26.0013C26.8291 26.0013 27.1098 26.0961 27.3779 26.2734L27.7198 25.7423C27.3639 25.4833 27.0354 25.3821 26.5429 25.3821C25.4876 25.3821 24.7963 26.0519 24.7963 26.9687M33.9741 25.3821C33.5634 25.3821 33.2959 25.5593 33.111 25.8248V25.4585H32.4054V28.4796H33.1182V26.7861C33.1182 26.2861 33.3509 26.0083 33.8163 26.0083C33.9687 26.0063 34.12 26.0321 34.2616 26.0843L34.481 25.4651C34.3234 25.4078 34.1179 25.3826 33.9737 25.3826M14.8911 25.6987C14.5486 25.4903 14.0767 25.3826 13.556 25.3826C12.7266 25.3826 12.1926 25.7495 12.1926 26.3498C12.1926 26.8424 12.5902 27.1463 13.3223 27.2411L13.6586 27.2853C14.0489 27.3359 14.2333 27.4307 14.2333 27.6014C14.2333 27.835 13.9739 27.9682 13.487 27.9682C12.9939 27.9682 12.6381 27.8228 12.3981 27.6522L12.0636 28.1645C12.4539 28.4299 12.947 28.5566 13.481 28.5566C14.4266 28.5566 14.9745 28.1457 14.9745 27.5704C14.9745 27.0394 14.5432 26.7616 13.8307 26.6668L13.4952 26.6219C13.187 26.585 12.9401 26.5278 12.9401 26.3253C12.9401 26.1044 13.1729 25.9715 13.5634 25.9715C13.9813 25.9715 14.3859 26.1169 14.5841 26.2305L14.8923 25.6994L14.8911 25.6987ZM24.0772 25.3832C23.6664 25.3832 23.3989 25.5604 23.2148 25.8259V25.4585H22.5093V28.4796H23.2212V26.7861C23.2212 26.2861 23.454 26.0083 23.9194 26.0083C24.0718 26.0063 24.2231 26.0321 24.3646 26.0843L24.584 25.4651C24.4264 25.4078 24.221 25.3826 24.0768 25.3826M18.0019 25.4585H16.8378V24.5419H16.1181V25.4585H15.454V26.0589H16.1181V27.4372C16.1181 28.1381 16.4129 28.5556 17.2551 28.5556C17.5641 28.5556 17.92 28.4673 18.1458 28.322L17.9401 27.7595C17.7277 27.8731 17.4949 27.9303 17.3098 27.9303C16.9539 27.9303 16.8378 27.7278 16.8378 27.4246V26.0595H18.0019V25.4585ZM7.35815 28.4803V26.5843C7.35815 25.8703 6.86505 25.3898 6.07014 25.3834C5.65224 25.3769 5.22118 25.4969 4.91937 25.9209C4.69356 25.5858 4.3377 25.3834 3.83742 25.3834C3.48774 25.3834 3.14604 25.4782 2.87854 25.832V25.4585H2.16602V28.4796H2.88413V26.8045C2.88413 26.28 3.1993 26.0013 3.68602 26.0013C4.15877 26.0013 4.39794 26.2857 4.39794 26.7978V28.4792H5.11765V26.8041C5.11765 26.2796 5.44618 26.0009 5.91874 26.0009C6.40486 26.0009 6.63685 26.2854 6.63685 26.7975V28.4789L7.35815 28.4803Z" fill="white"/>
<path d="M39.615 18.4307V17.9889H39.4903L39.3461 18.2921L39.2027 17.9889H39.0776V18.4307H39.1662V18.0979L39.301 18.385H39.3928L39.5276 18.0971V18.4307H39.6154H39.615ZM38.8241 18.4307V18.0646H38.9837V17.99H38.5759V18.0646H38.7355V18.4307H38.8233H38.8241Z" fill="#F79410"/>
<path d="M25.4448 20.3255H14.656V2.43274H25.445L25.4448 20.3255Z" fill="#FF5F00"/>
<path d="M15.34 11.3794C15.34 7.74986 17.1815 4.51664 20.0492 2.43302C17.8785 0.853502 15.1938 -0.00375687 12.4295 1.23767e-05C5.61997 1.23767e-05 0.100098 5.09466 0.100098 11.3794C0.100098 17.6641 5.61997 22.7588 12.4295 22.7588C15.1938 22.7626 17.8787 21.9053 20.0494 20.3258C17.1819 18.2425 15.34 15.0091 15.34 11.3794Z" fill="#EB001B"/>
<path d="M40.0001 11.3795C40.0001 17.6643 34.4802 22.7589 27.6707 22.7589C24.9061 22.7627 22.2209 21.9054 20.0498 20.3259C22.9183 18.2423 24.7598 15.0092 24.7598 11.3795C24.7598 7.7498 22.9183 4.51677 20.0498 2.43314C22.2209 0.853672 24.906 -0.00356873 27.6706 0.000134015C34.48 0.000134015 39.9999 5.09478 39.9999 11.3795" fill="#F79E1B"/>
</svg>
