<svg width="40" height="29" viewBox="0 0 40 29" fill="none" xmlns="http://www.w3.org/2000/svg">
<path fill-rule="evenodd" clip-rule="evenodd" d="M20.0501 24.8116C21.2891 23.4723 22.2781 21.8409 22.9539 20.0221C23.6296 18.2032 23.9771 16.2371 23.974 14.2499C23.9771 12.2626 23.6296 10.2965 22.9539 8.47767C22.2782 6.65885 21.2891 5.02745 20.0501 3.68813C17.9315 1.39651 15.121 0 12.037 0C5.44461 0 0.100098 6.37981 0.100098 14.2499C0.100098 22.1197 5.44461 28.4998 12.037 28.4998C15.121 28.4998 17.9317 27.1032 20.0501 24.8116Z" fill="#3A9BD9"/>
<path fill-rule="evenodd" clip-rule="evenodd" d="M28.0631 0C24.979 0 22.1681 1.39651 20.05 3.68813C19.618 4.15585 19.2152 4.66008 18.8448 5.19684H21.2543C21.5851 5.67594 21.8893 6.17999 22.1649 6.70581H17.9348C17.6801 7.19205 17.4503 7.69594 17.2465 8.21477H22.8521C23.045 8.70584 23.2142 9.20956 23.3586 9.72349H16.7411C16.6023 10.2185 16.4866 10.7221 16.3945 11.2322H23.7054C23.8844 12.2241 23.9744 13.2356 23.9741 14.2499C23.9741 15.8319 23.7574 17.354 23.3588 18.776H16.7411C16.885 19.2901 17.0538 19.7939 17.2465 20.285H22.8521C22.6487 20.8038 22.4192 21.3077 22.1647 21.7939H17.9348C18.2101 22.3197 18.5141 22.8238 18.8446 23.3029H21.2543C20.8843 23.8399 20.4818 24.3442 20.05 24.8119C22.1681 27.1035 24.979 28.5 28.0631 28.5C34.6552 28.5 40 22.1199 40 14.2501C40 6.3798 34.6552 0 28.0631 0Z" fill="#CC2131"/>
<path fill-rule="evenodd" clip-rule="evenodd" d="M38.4106 22.1932C38.4106 21.939 38.5832 21.7328 38.7965 21.7328C39.0093 21.7328 39.1818 21.939 39.1818 22.1932C39.1818 22.447 39.0093 22.6532 38.7965 22.6532C38.6938 22.6528 38.5955 22.6041 38.5232 22.5179C38.4508 22.4316 38.4104 22.3148 38.4106 22.1932V22.1932ZM38.7962 22.5425C38.9579 22.5425 39.0891 22.3866 39.0891 22.193C39.0891 21.9994 38.9579 21.843 38.7962 21.843C38.6342 21.843 38.503 21.9994 38.503 22.193C38.503 22.3866 38.6344 22.5425 38.7962 22.5425ZM38.7442 22.3949H38.6651V21.9901H38.8084C38.838 21.9901 38.8683 21.9911 38.8946 22.0108C38.9082 22.0222 38.9192 22.0373 38.9268 22.055C38.9343 22.0726 38.9381 22.0921 38.9378 22.1119C38.9378 22.1574 38.9155 22.2003 38.8792 22.2165L38.9417 22.3947H38.8538L38.8022 22.2347H38.7444V22.3949V22.1659H38.7881C38.8039 22.1659 38.8218 22.167 38.8361 22.1576C38.8425 22.1524 38.8476 22.1455 38.8511 22.1374C38.8546 22.1292 38.8563 22.1202 38.8562 22.1111C38.8559 22.103 38.854 22.095 38.8507 22.0879C38.8474 22.0808 38.8427 22.0747 38.837 22.0702C38.8233 22.0603 38.8011 22.0628 38.7862 22.0628H38.7446V22.3949H38.7442Z" fill="#CC2131"/>
<path fill-rule="evenodd" clip-rule="evenodd" d="M35.8864 17.3383C35.8864 17.0841 36.0589 16.8779 36.2717 16.8779C36.4846 16.8779 36.6571 17.0841 36.6571 17.3383C36.6571 17.5925 36.4846 17.7982 36.2717 17.7982C36.0589 17.7982 35.8864 17.5923 35.8864 17.3383ZM36.2715 17.6876C36.4332 17.6876 36.5644 17.5311 36.5644 17.338C36.5644 17.1445 36.4332 16.988 36.2715 16.988C36.1094 16.988 35.9787 17.1445 35.9787 17.338C35.9787 17.5311 36.1097 17.6876 36.2715 17.6876ZM36.2195 17.54H36.1404V17.1356H36.2837C36.3133 17.1356 36.344 17.1361 36.3698 17.1563C36.3835 17.1676 36.3945 17.1827 36.4021 17.2002C36.4096 17.2178 36.4134 17.2372 36.4131 17.2569C36.4131 17.3029 36.391 17.3454 36.3545 17.3615L36.417 17.5397H36.3295L36.2775 17.3797H36.2197L36.2195 17.54L36.2197 17.311H36.2634C36.2796 17.311 36.2976 17.3125 36.3114 17.3032C36.3177 17.2979 36.3228 17.291 36.3263 17.2829C36.3298 17.2748 36.3316 17.2658 36.3315 17.2567C36.3313 17.2484 36.3295 17.2404 36.3262 17.2332C36.3228 17.2259 36.318 17.2198 36.3123 17.2152C36.2986 17.2059 36.2764 17.2079 36.2619 17.2079H36.2199L36.2195 17.54ZM10.5458 17.7982H9.06016L9.9431 12.2446L7.91022 17.7982H6.55554L6.30793 12.2764L5.42223 17.7982H4.07373L5.22602 10.5739H7.54425L7.66688 15.0464L9.30137 10.5739H11.7171L10.5458 17.7982ZM27.149 17.7262C26.7425 17.8594 26.4247 17.9168 26.0813 17.9168C25.3213 17.9168 24.9062 17.4616 24.9062 16.6267C24.9062 16.4614 24.9216 16.2855 24.95 16.0995L25.0404 15.5251L25.1099 15.0601L25.7986 10.5736H27.2761L27.062 11.9229H27.8201L27.6165 13.3512H26.8551L26.4635 15.8025C26.449 15.8826 26.4405 15.9641 26.4381 16.0459C26.4381 16.3494 26.5919 16.4813 26.9451 16.4813C27.1142 16.4813 27.2454 16.4631 27.3458 16.4265L27.149 17.7262ZM31.4881 11.9711C31.3636 11.9125 31.3344 11.9125 31.3199 11.9077C31.2412 11.887 31.1992 11.8748 31.1919 11.8733C31.1425 11.8631 31.0925 11.8582 31.0424 11.8587C30.5547 11.8587 30.203 12.118 29.7483 12.8127L29.8794 11.9224H28.5339L27.6284 17.798H29.1151C29.647 14.2046 29.8748 13.5754 30.5879 13.5754C30.6417 13.5754 30.7037 13.5804 30.7758 13.5903L30.9494 13.6325L31.4881 11.9711ZM21.2596 13.7791C21.2596 14.5213 21.61 15.0325 22.4042 15.4166C23.0128 15.7118 23.1069 15.7982 23.1069 16.0651C23.1069 16.4308 22.8386 16.5958 22.2442 16.5958C21.7955 16.5958 21.3786 16.5238 20.8972 16.3633L20.691 17.7186L20.7575 17.732L21.0329 17.7922C21.1216 17.8104 21.2523 17.8278 21.4257 17.8435C21.7831 17.8766 22.0597 17.8923 22.2547 17.8923C23.8405 17.8923 24.5731 17.2718 24.5731 15.9317C24.5731 15.1253 24.2669 14.6524 23.5138 14.2964C22.8836 13.9989 22.8107 13.933 22.8107 13.6588C22.8107 13.3421 23.0606 13.1794 23.5462 13.1794C23.8416 13.1794 24.2442 13.2125 24.6262 13.2676L24.8403 11.9074C24.4513 11.8443 23.861 11.7925 23.5179 11.7925C21.8364 11.7927 21.2544 12.6954 21.2596 13.7791ZM15.3755 17.7982H14.1409L14.1697 17.1892C13.7937 17.6714 13.2925 17.8998 12.6113 17.8998C11.8062 17.8998 11.2536 17.2453 11.2536 16.2951C11.2536 14.8637 12.2136 14.0295 13.8634 14.0295C14.0325 14.0295 14.2473 14.0454 14.4687 14.0747C14.5147 13.8817 14.5273 13.7983 14.5273 13.6931C14.5273 13.3042 14.2682 13.1586 13.5744 13.1586C13.1502 13.1586 12.6708 13.2223 12.3398 13.3224L12.134 13.3848L12.0007 13.4227L12.2067 12.1018C12.9474 11.8753 13.4362 11.7897 13.9854 11.7897C15.2622 11.7897 15.937 12.3866 15.937 13.5132C15.937 13.8031 15.9146 14.0232 15.8163 14.6772L15.5058 16.7616L15.4535 17.1356L15.4156 17.4343L15.3902 17.6388L15.3755 17.7982ZM14.2916 15.1806C14.1815 15.1644 14.0706 15.1563 13.9596 15.1564C13.1176 15.1564 12.6911 15.4568 12.6911 16.0502C12.6911 16.4159 12.8992 16.6494 13.224 16.6494C13.8297 16.6496 14.2661 16.0494 14.2916 15.1806ZM20.2493 17.6714C19.7531 17.831 19.2411 17.9111 18.727 17.9097C17.0661 17.9082 16.2004 17.0055 16.2004 15.2774C16.2004 13.2605 17.3017 11.7755 18.7967 11.7755C20.0198 11.7755 20.8008 12.6072 20.8008 13.9112C20.8008 14.3441 20.7475 14.7662 20.6185 15.3618H17.6645C17.6555 15.4227 17.6507 15.4844 17.6502 15.5463C17.6502 16.2274 18.0906 16.5748 18.9535 16.5748C19.4841 16.5748 19.9637 16.4599 20.4963 16.2031L20.2493 17.6714ZM19.4581 14.1753C19.4662 14.053 19.4704 13.9529 19.4704 13.8756C19.4704 13.3985 19.21 13.1185 18.7677 13.1185C18.2951 13.1185 17.9571 13.494 17.82 14.1718L19.4581 14.1753ZM36.1062 15.1344C35.8838 17.0889 34.7405 17.9557 33.2205 17.9557C31.5397 17.9557 30.8609 16.7386 30.8609 15.2473C30.8609 13.165 32.0106 11.754 33.7863 11.754C35.3276 11.754 36.1459 12.9143 36.1459 14.4058C36.1459 14.7687 36.1455 14.7927 36.1062 15.1344ZM34.5763 14.3825C34.5763 13.7679 34.3673 13.1877 33.7582 13.1877C33 13.1877 32.5302 14.2574 32.5302 15.2018C32.5302 15.9984 32.8522 16.5337 33.3832 16.5223C33.7053 16.5223 34.392 15.9987 34.5278 15.0841C34.5596 14.8708 34.5763 14.6368 34.5763 14.3825Z" fill="white"/>
</svg>
