<svg width="40" height="29" viewBox="0 0 40 29" fill="none" xmlns="http://www.w3.org/2000/svg">
<path d="M39.2072 28.3184V28.3922H39.2818C39.2958 28.3924 39.3096 28.3892 39.3218 28.3828C39.3267 28.3796 39.3306 28.3754 39.3332 28.3704C39.3358 28.3655 39.337 28.36 39.3368 28.3546C39.337 28.3492 39.3358 28.3438 39.3332 28.339C39.3305 28.3342 39.3266 28.3301 39.3218 28.3271C39.3098 28.3204 39.2959 28.3171 39.2818 28.3177H39.2072V28.3184ZM39.2826 28.2662C39.3146 28.2644 39.3462 28.2728 39.3722 28.2902C39.3826 28.298 39.3908 28.308 39.3963 28.3194C39.4017 28.3307 39.4042 28.3431 39.4036 28.3555C39.404 28.3661 39.402 28.3768 39.3977 28.3867C39.3934 28.3966 39.3868 28.4055 39.3784 28.4129C39.3584 28.4289 39.3333 28.4386 39.3068 28.4403L39.4068 28.5455H39.3298L39.2378 28.4411H39.208V28.5455H39.1437V28.2664H39.2836L39.2826 28.2662ZM39.2626 28.6418C39.2964 28.6421 39.3298 28.6358 39.3608 28.6234C39.3906 28.6115 39.4178 28.5945 39.4408 28.5734C39.4638 28.5522 39.4822 28.5272 39.4949 28.4996C39.5212 28.4411 39.5212 28.3754 39.4949 28.3169C39.482 28.2894 39.4636 28.2644 39.4408 28.2431C39.4177 28.222 39.3906 28.205 39.3608 28.1931C39.3296 28.1813 39.2963 28.1754 39.2626 28.1758C39.2284 28.1755 39.1944 28.1814 39.1627 28.1931C39.1322 28.2048 39.1044 28.2217 39.0809 28.2431C39.0455 28.2766 39.0216 28.3189 39.0121 28.3649C39.0026 28.4108 39.008 28.4583 39.0275 28.5014C39.0397 28.5291 39.0578 28.5542 39.0809 28.5752C39.1044 28.5966 39.1322 28.6136 39.1627 28.6252C39.1942 28.6377 39.2283 28.6439 39.2626 28.6437M39.2626 28.1086C39.3505 28.1085 39.4349 28.1403 39.4975 28.1972C39.5277 28.2245 39.5518 28.257 39.5683 28.2929C39.5854 28.3298 39.5942 28.3695 39.5942 28.4096C39.5942 28.4497 39.5854 28.4894 39.5683 28.5263C39.5514 28.562 39.5274 28.5945 39.4975 28.6221C39.4669 28.6492 39.4312 28.6711 39.3922 28.6867C39.3512 28.7027 39.3071 28.7109 39.2626 28.7106C39.2176 28.7109 39.173 28.7028 39.1315 28.6867C39.092 28.6714 39.056 28.6495 39.0253 28.6221C38.9954 28.5935 38.9717 28.56 38.9555 28.5232C38.9384 28.4863 38.9296 28.4466 38.9296 28.4065C38.9296 28.3664 38.9384 28.3267 38.9555 28.2898C38.972 28.2539 38.9961 28.2213 39.0263 28.194C39.0566 28.1661 39.0927 28.1441 39.1325 28.1295C39.174 28.1133 39.2186 28.1052 39.2636 28.1055M8.6501 27.0306C8.6501 26.4983 9.02796 26.0611 9.64553 26.0611C10.2357 26.0611 10.634 26.4795 10.634 27.0306C10.634 27.5817 10.2357 28.0001 9.64553 28.0001C9.02796 28.0001 8.6501 27.5629 8.6501 27.0306M11.3067 27.0306V25.5159H10.5932V25.8849C10.3669 25.6122 10.0236 25.4412 9.55676 25.4412C8.63711 25.4412 7.91538 26.1068 7.91538 27.0313C7.91538 27.9559 8.63671 28.6215 9.55676 28.6215C10.0234 28.6215 10.3669 28.4503 10.5932 28.1778V28.5455H11.3059V27.0306H11.3067ZM35.4161 27.0306C35.4161 26.4983 35.7939 26.0611 36.4117 26.0611C37.0025 26.0611 37.4001 26.4795 37.4001 27.0306C37.4001 27.5817 37.0025 28.0001 36.4117 28.0001C35.7941 28.0001 35.4161 27.5629 35.4161 27.0306ZM38.0735 27.0306V24.3H37.3593V25.8849C37.133 25.6122 36.7897 25.4412 36.3229 25.4412C35.4033 25.4412 34.6815 26.1068 34.6815 27.0313C34.6815 27.9559 35.4029 28.6215 36.3229 28.6215C36.7897 28.6215 37.133 28.4503 37.3593 28.1778V28.5455H38.0735V27.0306ZM20.1626 26.0299C20.6224 26.0299 20.9177 26.2959 20.9931 26.7644H19.2905C19.3667 26.3271 19.6544 26.0299 20.1628 26.0299M20.177 25.4395C19.2153 25.4395 18.5426 26.0852 18.5426 27.0297C18.5426 27.9926 19.2423 28.6199 20.2248 28.6199C20.719 28.6199 21.1716 28.506 21.5699 28.1955L21.2202 27.7075C20.9451 27.9105 20.5948 28.0243 20.2655 28.0243C19.8057 28.0243 19.3871 27.8278 19.2841 27.2826H21.7206C21.7276 27.2007 21.7348 27.1181 21.7348 27.0295C21.7276 26.0854 21.095 25.4393 20.1766 25.4393M28.7913 27.0295C28.7913 26.4972 29.1692 26.06 29.7868 26.06C30.377 26.06 30.7752 26.4784 30.7752 27.0295C30.7752 27.5806 30.377 27.999 29.7868 27.999C29.1692 27.999 28.7911 27.5618 28.7911 27.0295M31.4477 27.0295V25.5159H30.7346V25.8849C30.5075 25.6122 30.165 25.4412 29.6982 25.4412C28.7785 25.4412 28.0568 26.1068 28.0568 27.0313C28.0568 27.9559 28.7781 28.6215 29.6982 28.6215C30.165 28.6215 30.5075 28.4503 30.7346 28.1778V28.5455H31.4479V27.0306L31.4477 27.0295ZM24.7619 27.0295C24.7619 27.9481 25.4548 28.6197 26.5124 28.6197C27.0066 28.6197 27.3359 28.5182 27.692 28.2586L27.3493 27.7263C27.0814 27.904 26.8001 27.999 26.4896 27.999C25.92 27.9926 25.5012 27.6125 25.5012 27.0295C25.5012 26.4465 25.92 26.0666 26.4896 26.06C26.7993 26.06 27.0806 26.155 27.3493 26.3327L27.692 25.8004C27.3353 25.5408 27.006 25.4393 26.5124 25.4393C25.4548 25.4393 24.7619 26.1107 24.7619 27.0295M33.9604 25.4393C33.5488 25.4393 33.2807 25.617 33.0953 25.883V25.5159H32.3882V28.5438H33.1025V26.8465C33.1025 26.3454 33.3358 26.067 33.8023 26.067C33.955 26.0649 34.1067 26.0908 34.2485 26.1432L34.4684 25.5225C34.3105 25.4651 34.1046 25.4399 33.96 25.4399M14.8344 25.7567C14.4911 25.5478 14.0181 25.4399 13.4963 25.4399C12.665 25.4399 12.1298 25.8076 12.1298 26.4092C12.1298 26.9029 12.5282 27.2075 13.262 27.3026L13.599 27.3468C13.9903 27.3976 14.175 27.4926 14.175 27.6636C14.175 27.8977 13.9151 28.0313 13.4271 28.0313C12.9329 28.0313 12.5762 27.8856 12.3357 27.7145L12.0004 28.228C12.3917 28.494 12.8859 28.621 13.4211 28.621C14.3688 28.621 14.918 28.2092 14.918 27.6326C14.918 27.1003 14.4857 26.8219 13.7716 26.7269L13.4353 26.6819C13.1264 26.645 12.8789 26.5876 12.8789 26.3847C12.8789 26.1633 13.1122 26.0301 13.5037 26.0301C13.9225 26.0301 14.328 26.1758 14.5267 26.2897L14.8356 25.7574L14.8344 25.7567ZM24.0411 25.4404C23.6295 25.4404 23.3614 25.6181 23.1769 25.8841V25.5159H22.4697V28.5438H23.1833V26.8465C23.1833 26.3454 23.4166 26.067 23.883 26.067C24.0357 26.0649 24.1874 26.0908 24.3292 26.1432L24.5491 25.5225C24.3912 25.4651 24.1853 25.4399 24.0407 25.4399M17.9522 25.5159H16.7855V24.5973H16.0641V25.5159H15.3986V26.1177H16.0641V27.499C16.0641 28.2016 16.3596 28.62 17.2037 28.62C17.5134 28.62 17.87 28.5315 18.0964 28.3859L17.8902 27.8221C17.6773 27.9359 17.444 27.9933 17.2585 27.9933C16.9018 27.9933 16.7855 27.7904 16.7855 27.4865V26.1183H17.9522V25.5159ZM7.28441 28.5446V26.6443C7.28441 25.9286 6.7902 25.4471 5.9935 25.4406C5.57466 25.4342 5.14262 25.5544 4.84013 25.9793C4.61382 25.6436 4.25715 25.4406 3.75574 25.4406C3.40527 25.4406 3.0628 25.5356 2.7947 25.8902V25.5159H2.08057V28.5438H2.8003V26.8649C2.8003 26.3393 3.11618 26.06 3.60399 26.06C4.07782 26.06 4.31753 26.345 4.31753 26.8583V28.5435H5.03886V26.8646C5.03886 26.3389 5.36813 26.0596 5.84176 26.0596C6.32897 26.0596 6.56149 26.3446 6.56149 26.8579V28.5431L7.28441 28.5446Z" fill="#231F20"/>
<path d="M39.6137 18.4721V18.0294H39.4887L39.3442 18.3332L39.2005 18.0294H39.0752V18.4721H39.1639V18.1386L39.2991 18.4264H39.391L39.5261 18.1379V18.4721H39.6141H39.6137ZM38.8212 18.4721V18.1052H38.9811V18.0305H38.5725V18.1052H38.7324V18.4721H38.8204H38.8212Z" fill="#F79410"/>
<path d="M25.412 20.3713H14.5989V2.43823H25.4122L25.412 20.3713Z" fill="#FF5F00"/>
<path d="M15.2843 11.4051C15.2843 7.76734 17.13 4.52683 20.0041 2.43851C17.8285 0.855428 15.1377 -0.00376535 12.3672 1.24046e-05C5.54234 1.24046e-05 0.0100098 5.10615 0.0100098 11.4051C0.0100098 17.704 5.54234 22.8101 12.3672 22.8101C15.1378 22.8139 17.8287 21.9547 20.0043 20.3716C17.1304 18.2837 15.2843 15.043 15.2843 11.4051Z" fill="#EB001B"/>
<path d="M39.9999 11.4052C39.9999 17.7041 34.4676 22.8102 27.6428 22.8102C24.8719 22.814 22.1807 21.9548 20.0046 20.3717C22.8796 18.2834 24.7253 15.0431 24.7253 11.4052C24.7253 7.76728 22.8796 4.52695 20.0046 2.43863C22.1806 0.855597 24.8717 -0.00357706 27.6426 0.000134042C34.4674 0.000134042 39.9997 5.10627 39.9997 11.4052" fill="#F79E1B"/>
</svg>
