<svg width="39" height="28" viewBox="0 0 39 28" fill="none" xmlns="http://www.w3.org/2000/svg">
<path d="M38.2268 27.6174V27.6893H38.2996C38.3132 27.6895 38.3267 27.6864 38.3386 27.6801C38.3433 27.6771 38.3471 27.6729 38.3497 27.6681C38.3522 27.6633 38.3534 27.658 38.3532 27.6526C38.3534 27.6474 38.3522 27.6422 38.3497 27.6375C38.3471 27.6328 38.3433 27.6288 38.3386 27.6258C38.3268 27.6193 38.3133 27.6161 38.2996 27.6166H38.2268V27.6174ZM38.3004 27.5664C38.3315 27.5647 38.3624 27.5729 38.3877 27.5898C38.3978 27.5975 38.4059 27.6072 38.4112 27.6183C38.4165 27.6294 38.419 27.6414 38.4183 27.6535C38.4188 27.6639 38.4168 27.6743 38.4126 27.684C38.4083 27.6936 38.4019 27.7023 38.3937 27.7095C38.3742 27.7251 38.3497 27.7345 38.3239 27.7363L38.4214 27.8388H38.3464L38.2567 27.737H38.2276V27.8388H38.1648V27.5666H38.3013L38.3004 27.5664ZM38.2809 27.9328C38.3138 27.9331 38.3464 27.9269 38.3766 27.9148C38.4057 27.9032 38.4322 27.8867 38.4546 27.866C38.477 27.8454 38.495 27.8209 38.5074 27.794C38.533 27.737 38.533 27.6729 38.5074 27.6159C38.4948 27.5891 38.4769 27.5647 38.4546 27.5439C38.4321 27.5233 38.4057 27.5068 38.3766 27.4952C38.3462 27.4837 38.3137 27.4779 38.2809 27.4783C38.2475 27.478 38.2144 27.4837 38.1834 27.4952C38.1536 27.5065 38.1265 27.5231 38.1036 27.5439C38.0691 27.5766 38.0458 27.6179 38.0365 27.6627C38.0273 27.7075 38.0325 27.7538 38.0516 27.7958C38.0634 27.8228 38.0811 27.8473 38.1036 27.8678C38.1265 27.8887 38.1536 27.9052 38.1834 27.9166C38.2142 27.9287 38.2474 27.9348 38.2809 27.9346M38.2809 27.4128C38.3665 27.4127 38.4488 27.4437 38.51 27.4991C38.5394 27.5258 38.5629 27.5575 38.579 27.5925C38.5956 27.6285 38.6042 27.6672 38.6042 27.7063C38.6042 27.7454 38.5956 27.7842 38.579 27.8201C38.5625 27.855 38.5391 27.8866 38.51 27.9135C38.48 27.94 38.4452 27.9613 38.4072 27.9765C38.3673 27.9922 38.3243 28.0001 38.2809 27.9999C38.2369 28.0002 38.1934 27.9922 38.1529 27.9765C38.1145 27.9617 38.0793 27.9403 38.0494 27.9135C38.0203 27.8857 37.9972 27.8529 37.9814 27.8171C37.9647 27.7811 37.9561 27.7424 37.9561 27.7033C37.9561 27.6642 37.9647 27.6254 37.9814 27.5895C37.9975 27.5544 38.0209 27.5227 38.0504 27.4961C38.0799 27.4688 38.1151 27.4474 38.1539 27.4331C38.1944 27.4174 38.2379 27.4094 38.2818 27.4097M8.42619 26.3614C8.42619 25.8423 8.79469 25.4159 9.39697 25.4159C9.97254 25.4159 10.3609 25.824 10.3609 26.3614C10.3609 26.8989 9.97254 27.307 9.39697 27.307C8.79469 27.307 8.42619 26.8805 8.42619 26.3614M11.017 26.3614V24.8842H10.3212V25.2441C10.1004 24.9781 9.76567 24.8114 9.3104 24.8114C8.41351 24.8114 7.70965 25.4605 7.70965 26.3622C7.70965 27.2638 8.41312 27.913 9.3104 27.913C9.76547 27.913 10.1004 27.746 10.3212 27.4802V27.8388H11.0162V26.3614H11.017ZM34.5295 26.3614C34.5295 25.8423 34.898 25.4159 35.5005 25.4159C36.0767 25.4159 36.4645 25.824 36.4645 26.3614C36.4645 26.8989 36.0767 27.307 35.5005 27.307C34.8982 27.307 34.5295 26.8805 34.5295 26.3614ZM37.1211 26.3614V23.6985H36.4247V25.2441C36.204 24.9781 35.8692 24.8114 35.4139 24.8114C34.517 24.8114 33.8132 25.4605 33.8132 26.3622C33.8132 27.2638 34.5167 27.913 35.4139 27.913C35.8692 27.913 36.204 27.746 36.4247 27.4802V27.8388H37.1211V26.3614ZM19.6537 25.3855C20.1021 25.3855 20.3901 25.645 20.4636 26.1018H18.8032C18.8775 25.6754 19.158 25.3855 19.6539 25.3855M19.6677 24.8097C18.7299 24.8097 18.0738 25.4395 18.0738 26.3605C18.0738 27.2996 18.7562 27.9114 19.7143 27.9114C20.1963 27.9114 20.6377 27.8003 21.0261 27.4975L20.6851 27.0216C20.4168 27.2195 20.0752 27.3305 19.7541 27.3305C19.3056 27.3305 18.8974 27.1389 18.7969 26.6072H21.1731C21.1799 26.5273 21.187 26.4467 21.187 26.3604C21.1799 25.4397 20.563 24.8096 19.6673 24.8096M28.0688 26.3604C28.0688 25.8413 28.4373 25.4148 29.0396 25.4148C29.6152 25.4148 30.0036 25.8229 30.0036 26.3604C30.0036 26.8978 29.6152 27.3059 29.0396 27.3059C28.4373 27.3059 28.0686 26.8795 28.0686 26.3604M30.6594 26.3604V24.8842H29.964V25.2441C29.7425 24.9781 29.4085 24.8114 28.9532 24.8114C28.0563 24.8114 27.3525 25.4605 27.3525 26.3622C27.3525 27.2638 28.0559 27.913 28.9532 27.913C29.4085 27.913 29.7425 27.746 29.964 27.4802V27.8388H30.6596V26.3614L30.6594 26.3604ZM24.1391 26.3604C24.1391 27.2562 24.8149 27.9112 25.8463 27.9112C26.3283 27.9112 26.6494 27.8122 26.9966 27.5591L26.6624 27.04C26.4012 27.2132 26.1269 27.3059 25.8241 27.3059C25.2686 27.2996 24.8601 26.9289 24.8601 26.3604C24.8601 25.7918 25.2686 25.4213 25.8241 25.4148C26.1261 25.4148 26.4004 25.5075 26.6624 25.6808L26.9966 25.1617C26.6488 24.9085 26.3277 24.8096 25.8463 24.8096C24.8149 24.8096 24.1391 25.4643 24.1391 26.3604M33.1099 24.8096C32.7085 24.8096 32.447 24.9828 32.2662 25.2423V24.8842H31.5766V27.8372H32.2733V26.1819C32.2733 25.6932 32.5008 25.4217 32.9557 25.4217C33.1046 25.4197 33.2525 25.4449 33.3909 25.496L33.6053 24.8907C33.4513 24.8347 33.2505 24.8101 33.1095 24.8101M14.4574 25.119C14.1226 24.9154 13.6613 24.8101 13.1524 24.8101C12.3417 24.8101 11.8197 25.1687 11.8197 25.7554C11.8197 26.2369 12.2083 26.534 12.9239 26.6267L13.2526 26.6698C13.6342 26.7193 13.8143 26.812 13.8143 26.9788C13.8143 27.2071 13.5609 27.3374 13.0849 27.3374C12.603 27.3374 12.2551 27.1952 12.0206 27.0284L11.6936 27.5292C12.0752 27.7886 12.5571 27.9124 13.0791 27.9124C14.0033 27.9124 14.5389 27.5108 14.5389 26.9486C14.5389 26.4295 14.1173 26.1579 13.4209 26.0653L13.0929 26.0214C12.7917 25.9854 12.5503 25.9294 12.5503 25.7315C12.5503 25.5156 12.7778 25.3857 13.1596 25.3857C13.5681 25.3857 13.9635 25.5278 14.1573 25.6388L14.4585 25.1197L14.4574 25.119ZM23.4362 24.8106C23.0347 24.8106 22.7733 24.9839 22.5933 25.2434V24.8842H21.9037V27.8372H22.5995V26.1819C22.5995 25.6932 22.8271 25.4217 23.282 25.4217C23.4309 25.4197 23.5788 25.4449 23.7172 25.496L23.9316 24.8907C23.7776 24.8347 23.5768 24.8101 23.4358 24.8101M17.498 24.8842H16.3601V23.9884H15.6567V24.8842H15.0076V25.4712H15.6567V26.8183C15.6567 27.5035 15.9448 27.9115 16.768 27.9115C17.07 27.9115 17.4179 27.8252 17.6386 27.6832L17.4376 27.1333C17.2299 27.2444 17.0024 27.3003 16.8214 27.3003C16.4736 27.3003 16.3601 27.1024 16.3601 26.8061V25.4717H17.498V24.8842ZM7.09431 27.8379V25.9847C7.09431 25.2867 6.61233 24.8171 5.83535 24.8108C5.42688 24.8045 5.00553 24.9218 4.71054 25.3362C4.48982 25.0087 4.14199 24.8108 3.65299 24.8108C3.3112 24.8108 2.9772 24.9035 2.71574 25.2493V24.8842H2.01929V27.8372H2.7212V26.1999C2.7212 25.6872 3.02926 25.4148 3.505 25.4148C3.96709 25.4148 4.20087 25.6928 4.20087 26.1934V27.8369H4.90434V26.1995C4.90434 25.6869 5.22547 25.4145 5.68736 25.4145C6.16252 25.4145 6.38928 25.6925 6.38928 26.193V27.8365L7.09431 27.8379Z" fill="#231F20"/>
<path d="M38.6235 18.015V17.5831H38.5017L38.3607 17.8795L38.2205 17.5831H38.0983V18.015H38.1848V17.6896L38.3166 17.9703H38.4063L38.5381 17.6889V18.015H38.6239H38.6235ZM37.8505 18.015V17.6571H38.0064V17.5842H37.6079V17.6571H37.7639V18.015H37.8497H37.8505Z" fill="#F79410"/>
<path d="M24.773 19.867H14.2275V2.37781H24.7732L24.773 19.867Z" fill="#FF5F00"/>
<path d="M14.8961 11.1227C14.8961 7.57505 16.6962 4.41477 19.4991 2.37814C17.3774 0.834251 14.7532 -0.00367213 12.0513 1.20975e-05C5.39537 1.20975e-05 0 4.97974 0 11.1227C0 17.2657 5.39537 22.2454 12.0513 22.2454C14.7533 22.2492 17.3776 21.4112 19.4993 19.8673C16.6965 17.831 14.8961 14.6706 14.8961 11.1227Z" fill="#EB001B"/>
<path d="M39 11.1228C39 17.2658 33.6047 22.2456 26.9488 22.2456C24.2465 22.2492 21.6219 21.4113 19.4998 19.8674C22.3035 17.8308 24.1035 14.6707 24.1035 11.1228C24.1035 7.57499 22.3035 4.41489 19.4998 2.37826C21.6219 0.834419 24.2464 -0.00348548 26.9486 0.000133746C33.6045 0.000133746 38.9999 4.97987 38.9999 11.1228" fill="#F79E1B"/>
</svg>
